<mxfile host="app.diagrams.net" modified="2024-05-07T00:55:41.719Z" agent="Mozilla/5.0 (Windows NT 10.0; Win64; x64) AppleWebKit/537.36 (KHTML, like Gecko) Chrome/124.0.0.0 Safari/537.36" etag="iZ6Poqf_sICLCvOg8mjl" version="24.3.1" type="device">
  <diagram name="Page-1" id="3upQflw-zH2HvMdanFBh">
    <mxGraphModel dx="1334" dy="738" grid="1" gridSize="10" guides="1" tooltips="1" connect="1" arrows="1" fold="1" page="1" pageScale="1" pageWidth="850" pageHeight="1100" math="0" shadow="0">
      <root>
        <mxCell id="0" />
        <mxCell id="1" parent="0" />
        <mxCell id="rvkaAaqAiF4raTj2M9E4-39" style="edgeStyle=orthogonalEdgeStyle;rounded=0;orthogonalLoop=1;jettySize=auto;html=1;startArrow=classic;startFill=1;" edge="1" parent="1" source="rvkaAaqAiF4raTj2M9E4-10" target="rvkaAaqAiF4raTj2M9E4-38">
          <mxGeometry relative="1" as="geometry" />
        </mxCell>
        <mxCell id="rvkaAaqAiF4raTj2M9E4-10" value="WebService" style="shape=document;whiteSpace=wrap;html=1;boundedLbl=1;" vertex="1" parent="1">
          <mxGeometry x="400" y="270" width="120" height="80" as="geometry" />
        </mxCell>
        <mxCell id="rvkaAaqAiF4raTj2M9E4-11" value="MessageSender" style="shape=document;whiteSpace=wrap;html=1;boundedLbl=1;" vertex="1" parent="1">
          <mxGeometry x="400" y="410" width="120" height="80" as="geometry" />
        </mxCell>
        <mxCell id="rvkaAaqAiF4raTj2M9E4-19" value="" style="edgeStyle=orthogonalEdgeStyle;rounded=0;orthogonalLoop=1;jettySize=auto;html=1;startArrow=none;startFill=0;" edge="1" parent="1" source="rvkaAaqAiF4raTj2M9E4-17" target="rvkaAaqAiF4raTj2M9E4-18">
          <mxGeometry relative="1" as="geometry" />
        </mxCell>
        <mxCell id="rvkaAaqAiF4raTj2M9E4-17" value="CallLogWitness" style="shape=document;whiteSpace=wrap;html=1;boundedLbl=1;" vertex="1" parent="1">
          <mxGeometry x="400" y="660" width="120" height="80" as="geometry" />
        </mxCell>
        <mxCell id="rvkaAaqAiF4raTj2M9E4-18" value="SQLite" style="shape=cylinder3;whiteSpace=wrap;html=1;boundedLbl=1;backgroundOutline=1;size=15;fillColor=#f8cecc;strokeColor=#b85450;" vertex="1" parent="1">
          <mxGeometry x="620" y="660" width="60" height="80" as="geometry" />
        </mxCell>
        <mxCell id="rvkaAaqAiF4raTj2M9E4-24" style="edgeStyle=orthogonalEdgeStyle;rounded=0;orthogonalLoop=1;jettySize=auto;html=1;exitX=0.5;exitY=1;exitDx=0;exitDy=0;exitPerimeter=0;curved=1;startArrow=classic;startFill=1;endArrow=none;endFill=0;" edge="1" parent="1" source="rvkaAaqAiF4raTj2M9E4-22" target="rvkaAaqAiF4raTj2M9E4-18">
          <mxGeometry relative="1" as="geometry" />
        </mxCell>
        <mxCell id="rvkaAaqAiF4raTj2M9E4-22" value="RabbitMQ" style="shape=cylinder3;whiteSpace=wrap;html=1;boundedLbl=1;backgroundOutline=1;size=15;direction=south;" vertex="1" parent="1">
          <mxGeometry x="760" y="730" width="110" height="40" as="geometry" />
        </mxCell>
        <mxCell id="rvkaAaqAiF4raTj2M9E4-26" value="MSSQL" style="shape=cylinder3;whiteSpace=wrap;html=1;boundedLbl=1;backgroundOutline=1;size=15;" vertex="1" parent="1">
          <mxGeometry x="760" y="620" width="60" height="80" as="geometry" />
        </mxCell>
        <mxCell id="rvkaAaqAiF4raTj2M9E4-27" style="edgeStyle=orthogonalEdgeStyle;rounded=0;orthogonalLoop=1;jettySize=auto;html=1;exitX=1;exitY=0.5;exitDx=0;exitDy=0;exitPerimeter=0;entryX=0;entryY=0.5;entryDx=0;entryDy=0;entryPerimeter=0;curved=1;startArrow=none;startFill=0;" edge="1" parent="1" source="rvkaAaqAiF4raTj2M9E4-18" target="rvkaAaqAiF4raTj2M9E4-26">
          <mxGeometry relative="1" as="geometry" />
        </mxCell>
        <mxCell id="rvkaAaqAiF4raTj2M9E4-28" value="ScheduleCallUpdate" style="shape=document;whiteSpace=wrap;html=1;boundedLbl=1;" vertex="1" parent="1">
          <mxGeometry x="400" y="850" width="170" height="100" as="geometry" />
        </mxCell>
        <mxCell id="rvkaAaqAiF4raTj2M9E4-44" value="" style="edgeStyle=orthogonalEdgeStyle;rounded=0;orthogonalLoop=1;jettySize=auto;html=1;" edge="1" parent="1" source="rvkaAaqAiF4raTj2M9E4-30" target="rvkaAaqAiF4raTj2M9E4-28">
          <mxGeometry relative="1" as="geometry" />
        </mxCell>
        <mxCell id="rvkaAaqAiF4raTj2M9E4-30" value="SQLite" style="shape=cylinder3;whiteSpace=wrap;html=1;boundedLbl=1;backgroundOutline=1;size=15;fillColor=#f8cecc;strokeColor=#b85450;" vertex="1" parent="1">
          <mxGeometry x="620" y="860" width="60" height="80" as="geometry" />
        </mxCell>
        <mxCell id="rvkaAaqAiF4raTj2M9E4-33" value="RabbitMQ" style="shape=cylinder3;whiteSpace=wrap;html=1;boundedLbl=1;backgroundOutline=1;size=15;direction=south;" vertex="1" parent="1">
          <mxGeometry x="760" y="930" width="110" height="40" as="geometry" />
        </mxCell>
        <mxCell id="rvkaAaqAiF4raTj2M9E4-38" value="SQLite" style="shape=cylinder3;whiteSpace=wrap;html=1;boundedLbl=1;backgroundOutline=1;size=15;fillColor=#f8cecc;strokeColor=#b85450;" vertex="1" parent="1">
          <mxGeometry x="620" y="270" width="60" height="80" as="geometry" />
        </mxCell>
        <mxCell id="rvkaAaqAiF4raTj2M9E4-43" style="edgeStyle=orthogonalEdgeStyle;rounded=0;orthogonalLoop=1;jettySize=auto;html=1;exitX=0.5;exitY=1;exitDx=0;exitDy=0;exitPerimeter=0;entryX=1;entryY=0.5;entryDx=0;entryDy=0;entryPerimeter=0;curved=1;" edge="1" parent="1" source="rvkaAaqAiF4raTj2M9E4-33" target="rvkaAaqAiF4raTj2M9E4-30">
          <mxGeometry relative="1" as="geometry" />
        </mxCell>
        <mxCell id="rvkaAaqAiF4raTj2M9E4-45" value="MSSQL" style="shape=cylinder3;whiteSpace=wrap;html=1;boundedLbl=1;backgroundOutline=1;size=15;" vertex="1" parent="1">
          <mxGeometry x="760" y="810" width="60" height="80" as="geometry" />
        </mxCell>
        <mxCell id="rvkaAaqAiF4raTj2M9E4-46" style="edgeStyle=orthogonalEdgeStyle;rounded=0;orthogonalLoop=1;jettySize=auto;html=1;entryX=1;entryY=0.5;entryDx=0;entryDy=0;entryPerimeter=0;curved=1;exitX=0;exitY=0.5;exitDx=0;exitDy=0;exitPerimeter=0;" edge="1" parent="1" source="rvkaAaqAiF4raTj2M9E4-45" target="rvkaAaqAiF4raTj2M9E4-30">
          <mxGeometry relative="1" as="geometry">
            <mxPoint x="760" y="850" as="sourcePoint" />
          </mxGeometry>
        </mxCell>
        <mxCell id="rvkaAaqAiF4raTj2M9E4-53" value="" style="edgeStyle=orthogonalEdgeStyle;rounded=0;orthogonalLoop=1;jettySize=auto;html=1;" edge="1" parent="1" source="rvkaAaqAiF4raTj2M9E4-48" target="rvkaAaqAiF4raTj2M9E4-11">
          <mxGeometry relative="1" as="geometry" />
        </mxCell>
        <mxCell id="rvkaAaqAiF4raTj2M9E4-48" value="SQLite" style="shape=cylinder3;whiteSpace=wrap;html=1;boundedLbl=1;backgroundOutline=1;size=15;fillColor=#f8cecc;strokeColor=#b85450;" vertex="1" parent="1">
          <mxGeometry x="620" y="410" width="60" height="80" as="geometry" />
        </mxCell>
        <mxCell id="rvkaAaqAiF4raTj2M9E4-49" value="RabbitMQ" style="shape=cylinder3;whiteSpace=wrap;html=1;boundedLbl=1;backgroundOutline=1;size=15;direction=south;" vertex="1" parent="1">
          <mxGeometry x="760" y="480" width="110" height="40" as="geometry" />
        </mxCell>
        <mxCell id="rvkaAaqAiF4raTj2M9E4-50" style="edgeStyle=orthogonalEdgeStyle;rounded=0;orthogonalLoop=1;jettySize=auto;html=1;exitX=0.5;exitY=1;exitDx=0;exitDy=0;exitPerimeter=0;entryX=1;entryY=0.5;entryDx=0;entryDy=0;entryPerimeter=0;curved=1;" edge="1" parent="1" source="rvkaAaqAiF4raTj2M9E4-49" target="rvkaAaqAiF4raTj2M9E4-48">
          <mxGeometry relative="1" as="geometry" />
        </mxCell>
        <mxCell id="rvkaAaqAiF4raTj2M9E4-51" value="MSSQL" style="shape=cylinder3;whiteSpace=wrap;html=1;boundedLbl=1;backgroundOutline=1;size=15;" vertex="1" parent="1">
          <mxGeometry x="760" y="350" width="60" height="80" as="geometry" />
        </mxCell>
        <mxCell id="rvkaAaqAiF4raTj2M9E4-52" style="edgeStyle=orthogonalEdgeStyle;rounded=0;orthogonalLoop=1;jettySize=auto;html=1;entryX=1;entryY=0.5;entryDx=0;entryDy=0;entryPerimeter=0;curved=1;exitX=0;exitY=0.5;exitDx=0;exitDy=0;exitPerimeter=0;" edge="1" parent="1" source="rvkaAaqAiF4raTj2M9E4-51" target="rvkaAaqAiF4raTj2M9E4-48">
          <mxGeometry relative="1" as="geometry">
            <mxPoint x="730" y="400" as="sourcePoint" />
          </mxGeometry>
        </mxCell>
      </root>
    </mxGraphModel>
  </diagram>
</mxfile>
